<svg width="25" height="32" viewBox="0 0 25 32" fill="none" xmlns="http://www.w3.org/2000/svg">
<path d="M22.7273 28.7906H15.7102C16.8926 27.7619 18.0075 26.6618 19.0483 25.4968C22.9403 21.1375 25 16.529 25 12.1835C25 8.9535 23.683 5.85583 21.3388 3.5719C18.9946 1.28798 15.8152 0.00488281 12.5 0.00488281C9.1848 0.00488281 6.00537 1.28798 3.66117 3.5719C1.31696 5.85583 0 8.9535 0 12.1835C0 16.529 2.05966 21.1375 5.96591 25.4968C7.00299 26.6651 8.11811 27.7654 9.30398 28.7906H2.27273C1.97134 28.7906 1.68231 28.9072 1.4692 29.1149C1.25609 29.3225 1.13636 29.6041 1.13636 29.8977C1.13636 30.1914 1.25609 30.473 1.4692 30.6806C1.68231 30.8882 1.97134 31.0049 2.27273 31.0049H22.7273C23.0287 31.0049 23.3177 30.8882 23.5308 30.6806C23.7439 30.473 23.8636 30.1914 23.8636 29.8977C23.8636 29.6041 23.7439 29.3225 23.5308 29.1149C23.3177 28.9072 23.0287 28.7906 22.7273 28.7906ZM12.5 7.75488C13.399 7.75488 14.2778 8.01461 15.0253 8.50123C15.7728 8.98785 16.3554 9.6795 16.6995 10.4887C17.0435 11.2979 17.1335 12.1884 16.9581 13.0474C16.7827 13.9065 16.3498 14.6956 15.7141 15.3149C15.0784 15.9343 14.2685 16.3561 13.3868 16.5269C12.505 16.6978 11.5911 16.6101 10.7605 16.2749C9.92996 15.9397 9.22005 15.3721 8.72059 14.6438C8.22113 13.9156 7.95455 13.0593 7.95455 12.1835C7.95455 11.0089 8.43344 9.8825 9.28588 9.05198C10.1383 8.22146 11.2945 7.75488 12.5 7.75488Z" fill="#B98D38"/>
</svg>
