<svg width="26" height="27" viewBox="0 0 26 27" fill="none" xmlns="http://www.w3.org/2000/svg">
<path d="M17.095 18.5624C17.2683 18.7574 17.4958 18.8549 17.7775 18.8549C18.0592 18.8549 18.2975 18.7465 18.4925 18.5299C18.7092 18.3349 18.8175 18.0911 18.8175 17.7986C18.8175 17.5061 18.72 17.2624 18.525 17.0674L14.0725 12.6149V7.02488C14.0725 6.76488 13.9804 6.5428 13.7962 6.35863C13.6121 6.17447 13.3792 6.08238 13.0975 6.08238C12.8158 6.08238 12.5829 6.17447 12.3988 6.35863C12.2146 6.5428 12.1225 6.77572 12.1225 7.05738V13.0049C12.1225 13.1349 12.1442 13.254 12.1875 13.3624C12.2308 13.4707 12.2958 13.579 12.3825 13.6874L17.095 18.5624ZM13 26.0049C11.2233 26.0049 9.54417 25.6636 7.9625 24.9811C6.38083 24.2986 4.99958 23.367 3.81875 22.1861C2.63792 21.0053 1.70625 19.624 1.02375 18.0424C0.34125 16.4607 0 14.7815 0 13.0049C0 11.2282 0.34125 9.54905 1.02375 7.96738C1.70625 6.38572 2.63792 5.00447 3.81875 3.82363C4.99958 2.6428 6.38083 1.71113 7.9625 1.02863C9.54417 0.346133 11.2233 0.00488281 13 0.00488281C14.7767 0.00488281 16.4558 0.346133 18.0375 1.02863C19.6192 1.71113 21.0004 2.6428 22.1812 3.82363C23.3621 5.00447 24.2937 6.38572 24.9762 7.96738C25.6587 9.54905 26 11.2282 26 13.0049C26 14.7815 25.6587 16.4607 24.9762 18.0424C24.2937 19.624 23.3621 21.0053 22.1812 22.1861C21.0004 23.367 19.6192 24.2986 18.0375 24.9811C16.4558 25.6636 14.7767 26.0049 13 26.0049Z" fill="#B98D38"/>
</svg>
