<svg width="28" height="29" viewBox="0 0 28 29" fill="none" xmlns="http://www.w3.org/2000/svg">
<path d="M27.9861 21.1486C27.738 23.042 26.8109 24.7809 25.377 26.042C23.943 27.3032 22.0999 28.0007 20.1904 28.0049C9.05762 28.0049 0 18.9473 0 7.81453C0.00420963 5.90494 0.701718 4.06185 1.96284 2.62793C3.22397 1.19401 4.96289 0.266844 6.85631 0.0188054C7.33898 -0.0347117 7.82615 0.0669102 8.24717 0.308934C8.66819 0.550958 9.00117 0.920801 9.19783 1.36483L12.0161 7.94072C12.1623 8.28205 12.2209 8.65449 12.1866 9.02422C12.1523 9.39395 12.0262 9.74926 11.8198 10.0579L9.49227 13.6193C10.5462 15.7582 12.2828 17.4849 14.4277 18.5266L17.947 16.1851C18.2553 15.9773 18.6115 15.8515 18.9819 15.8196C19.3524 15.7877 19.7249 15.8508 20.0642 16.0028L26.6401 18.8071C27.0841 19.0037 27.4539 19.3367 27.6959 19.7577C27.938 20.1787 28.0396 20.6659 27.9861 21.1486ZM17.5824 3.28572C19.2898 3.75218 20.846 4.65576 22.0976 5.9073C23.3491 7.15884 24.2527 8.71508 24.7192 10.4224C24.7811 10.6622 24.9205 10.8747 25.1158 11.0268C25.3111 11.179 25.5512 11.2623 25.7988 11.2637C25.8984 11.2635 25.9975 11.2494 26.0932 11.2216C26.2358 11.1843 26.3695 11.1189 26.4865 11.0293C26.6035 10.9397 26.7014 10.8276 26.7746 10.6996C26.8477 10.5716 26.8945 10.4304 26.9124 10.2841C26.9302 10.1378 26.9187 9.98937 26.8784 9.84758C26.3176 7.7566 25.2165 5.84997 23.6857 4.31917C22.1549 2.78837 20.2483 1.68728 18.1573 1.12647C18.011 1.07317 17.8552 1.05091 17.6998 1.06112C17.5444 1.07134 17.3928 1.11379 17.2548 1.18579C17.1167 1.25778 16.9951 1.35774 16.8978 1.47929C16.8004 1.60085 16.7295 1.74134 16.6894 1.89182C16.6494 2.0423 16.6411 2.19947 16.6651 2.35333C16.6891 2.50719 16.7449 2.65437 16.8289 2.78549C16.9129 2.91661 17.0233 3.0288 17.153 3.11493C17.2827 3.20105 17.429 3.25921 17.5824 3.28572ZM16.4187 7.61823C17.3677 7.87802 18.2328 8.38056 18.9285 9.07633C19.6243 9.77211 20.1269 10.6371 20.3866 11.5862C20.4463 11.8271 20.5852 12.041 20.781 12.1935C20.9768 12.3461 21.2181 12.4285 21.4663 12.4275C21.5614 12.4284 21.656 12.4142 21.7467 12.3854C21.8905 12.3496 22.0258 12.2853 22.1443 12.1964C22.2629 12.1074 22.3623 11.9955 22.4369 11.8674C22.5114 11.7392 22.5595 11.5975 22.5782 11.4504C22.5969 11.3034 22.5859 11.1541 22.5459 11.0113C22.1918 9.67864 21.4918 8.46321 20.5167 7.48816C19.5417 6.51311 18.3262 5.81308 16.9935 5.45898C16.8472 5.40568 16.6914 5.38343 16.536 5.39364C16.3806 5.40385 16.2291 5.44631 16.091 5.5183C15.9529 5.59029 15.8314 5.69025 15.734 5.81181C15.6367 5.93336 15.5657 6.07385 15.5257 6.22433C15.4856 6.37481 15.4773 6.53199 15.5013 6.68585C15.5253 6.83971 15.5811 6.98688 15.6651 7.118C15.7491 7.24912 15.8595 7.36132 15.9892 7.44744C16.119 7.53356 16.2652 7.59173 16.4187 7.61823Z" fill="#B98D38"/>
</svg>
